<svg xmlns="http://www.w3.org/2000/svg" width="126" height="40" viewBox="0 0 126 40">
  <path fill="#FFF" fill-rule="evenodd" d="M52.0798973,49.623492 L54.0357257,57.6356518 C54.1259438,58.0491197 54.2169896,58.4593318 54.3072076,58.8727996 C54.3949426,59.2854535 54.4785392,59.7095022 54.5596527,60.1408761 C54.6275232,59.8226361 54.7020151,59.4889318 54.7856117,59.1365075 C54.8634144,58.7873388 54.9859124,58.2875962 55.1514501,57.6356518 L57.2943362,49.623492 L61.0421107,49.623492 L63.1825138,57.587631 C63.2826641,57.9506362 63.3761929,58.3225944 63.4606172,58.710017 C63.5442137,59.1023231 63.6319487,59.5499753 63.7287883,60.0497179 C63.8421817,59.4571892 63.942332,58.9680275 64.0259286,58.5797909 C64.1070421,58.1980657 64.1881556,57.867617 64.2651306,57.587631 L66.2664819,49.623492 L70.9578216,49.623492 L66.1406732,66.3787056 L61.8342088,66.3787056 L59.7260857,59.225224 C59.6482829,58.9745388 59.5191635,58.485377 59.3412104,57.7504136 C59.2609246,57.4256623 59.198848,57.1684658 59.1566358,56.9804518 C59.1152514,57.1432344 59.0597962,57.3686884 58.9919258,57.6576275 C58.8114896,58.3982883 58.674921,58.9200066 58.5847029,59.225224 L56.5121704,66.3787056 L52.1957737,66.3787056 L47.3885576,49.623492 L52.0798973,49.623492 Z M44,77.9997558 L44,38 L74.2495396,43.2489251 L74.2495396,72.7500168 L44,77.9997558 Z M85.5670006,54.5037959 C85.9907772,53.4579176 86.6280976,52.5040116 87.4847554,51.6461472 C88.2867857,50.8322342 89.198071,50.2217994 90.2136451,49.8180986 C91.2250807,49.4135838 92.3507374,49.2133612 93.5955812,49.2101055 C94.3355349,49.2133612 95.0730056,49.299636 95.8038547,49.4746273 C96.5313931,49.6488047 97.2647253,49.9133264 98.0055067,50.2624951 L98.0055067,55.250968 C97.3681864,54.5615837 96.7350045,54.0528881 96.1009949,53.7248811 C95.4669854,53.4041994 94.7882806,53.2422307 94.0706745,53.238975 C92.7323019,53.2422307 91.6521681,53.6898829 90.8277901,54.5835594 C90.0001014,55.4829333 89.586257,56.6533402 89.5895678,58.0907106 C89.586257,59.4385506 90.0100337,60.5519836 90.8534485,61.4358932 C91.6943802,62.3198027 92.7645817,62.7617575 94.0706745,62.7617575 C94.7882806,62.7617575 95.4669854,62.5989749 96.1009949,62.2742236 C96.7350045,61.9502862 97.3681864,61.4391488 98.0055067,60.735928 L98.0055067,65.7366096 C97.2647253,66.0898479 96.5313931,66.3511139 95.8038547,66.5261052 C95.0730056,66.697027 94.3355349,66.7857435 93.5955812,66.7898131 C92.6611206,66.7857435 91.801152,66.6774931 91.0156755,66.4618061 C90.2260604,66.2453052 89.5051435,65.9181122 88.8454756,65.4737157 C87.5716627,64.6370131 86.6016115,63.5781123 85.9361498,62.3027105 C85.2665496,61.0321923 84.930508,59.5972636 84.9338187,57.9979245 C84.930508,56.7200811 85.1440517,55.5561854 85.5670006,54.5037959 Z M77.7627237,72.9991556 L77.7627237,43.001577 L105.218814,38.0000814 L105.218814,77.9998372 L77.7627237,72.9991556 Z M116.366457,49.6203177 L121.032138,49.6203177 C122.955687,49.6235734 124.300681,49.6838029 125.06381,49.805076 C125.826939,49.9287907 126.483296,50.1387803 127.039503,50.4309751 C127.662752,50.777702 128.141984,51.2359351 128.474715,51.8113716 C128.800824,52.3900637 128.966362,53.0574724 128.969673,53.8079002 C128.966362,54.765062 128.720538,55.5211872 128.228891,56.0811593 C127.733933,56.6435732 126.948457,57.0700637 125.874945,57.3557471 C127.080887,57.450975 128.028591,57.8676984 128.713917,58.6083593 C129.395932,59.3555315 129.738596,60.351761 129.738596,61.5905366 C129.738596,62.4882827 129.544916,63.2728949 129.163352,63.9500705 C128.775166,64.6305018 128.225581,65.1579174 127.514596,65.5298757 C126.92942,65.8383487 126.211814,66.0548496 125.36095,66.1826339 C124.504292,66.3120461 123.107981,66.3755313 121.17119,66.3755313 L116.366457,66.3755313 L116.366457,49.6203177 Z M108.987423,77.9998372 L108.987423,38.2515805 L136.69513,43.001577 L136.69513,72.7500982 L110.247993,77.9998372 L108.987423,77.9998372 Z M163.006858,66.3691828 L158.548099,66.3691828 L152.114474,57.7156595 C151.978734,57.5439238 151.771811,57.1906856 151.490397,56.6600143 C151.205672,56.1285291 150.895289,55.5058856 150.565869,54.7872004 C150.656087,55.4896073 150.723957,56.1130647 150.76948,56.653503 C150.807554,57.1971969 150.830729,57.6774056 150.83404,58.0933151 L150.83404,66.3691828 L146.352933,66.3691828 L146.352933,49.6147831 L150.83404,49.6147831 L157.267664,58.2300525 C157.39099,58.4082995 157.594601,58.7615377 157.879326,59.292209 C158.160741,59.8228803 158.473607,60.4561047 158.81627,61.1837429 C158.722741,60.4943586 158.654871,59.8749708 158.612659,59.3312768 C158.568791,58.7900247 158.544788,58.309816 158.548099,57.8873951 L158.548099,49.6147831 L163.006858,49.6147831 L163.006858,66.3691828 Z M139.492221,43.2491693 L170,38.0002442 L170,78 L139.492221,72.750261 L139.492221,43.2491693 Z M123.97209,62.5475356 C123.512723,62.8218243 122.733868,62.9585617 121.634697,62.9544921 L120.004978,62.9544921 L120.004978,59.3024643 L121.702567,59.3024643 C122.834018,59.30572 123.609562,59.4448991 124.030028,59.7208156 C124.447183,60.0008017 124.657416,60.4915913 124.660727,61.1899286 C124.657416,61.8255947 124.428146,62.2773164 123.97209,62.5475356 Z M123.296365,55.9445033 C122.865967,56.1951886 122.08049,56.3197172 120.935797,56.3164616 L120.004647,56.3164616 L120.004647,52.9395364 L121.003667,52.9395364 C122.158293,52.9427921 122.937148,53.0705764 123.338577,53.3245173 C123.735867,53.5825277 123.933685,54.0269242 123.936168,54.6568929 C123.933685,55.2705834 123.720141,55.6995155 123.296365,55.9445033 Z" transform="translate(-44 -38)"/>
</svg>
