<svg xmlns="http://www.w3.org/2000/svg" width="18" height="18" viewBox="0 0 18 18">
  <path fill="#FFF" fill-rule="evenodd" d="M5.83333333,5.46875 C5.83333333,5.34260417 5.89895833,5.22520833 6.00614583,5.15885417 C6.1140625,5.09177083 6.24822917,5.08666667 6.36125,5.1428125 L12.92375,8.4240625 C13.0469792,8.48604167 13.125,8.6121875 13.125,8.75 C13.125,8.8878125 13.0469792,9.01395833 12.92375,9.0759375 L6.36125,12.3571875 C6.30947917,12.3827083 6.2540625,12.3958333 6.19791667,12.3958333 C6.1315625,12.3958333 6.06447917,12.3783333 6.00614583,12.341875 C5.89895833,12.2755208 5.83333333,12.158125 5.83333333,12.03125 L5.83333333,5.46875 Z M8.75,17.5 C13.5748958,17.5 17.5,13.5748958 17.5,8.75 C17.5,3.92583333 13.5748958,0 8.75,0 C3.92510417,0 0,3.92583333 0,8.75 C0,13.5748958 3.92510417,17.5 8.75,17.5 L8.75,17.5 Z"/>
</svg>
